<svg width="532" height="332" viewBox="0 0 532 332" fill="none" xmlns="http://www.w3.org/2000/svg">
<path d="M296.507 217.017C296.507 276.35 248.765 324.358 189.986 324.358C131.207 324.358 83.4653 276.35 83.4653 217.017C83.4653 157.684 131.207 109.677 189.986 109.677C248.765 109.677 296.507 157.684 296.507 217.017Z" stroke="black" stroke-width="15"/>
<path d="M445.852 217.017C445.852 276.323 397.938 324.358 338.884 324.358C279.83 324.358 231.916 276.323 231.916 217.017C231.916 157.712 279.83 109.677 338.884 109.677C397.938 109.677 445.852 157.712 445.852 217.017Z" stroke="black" stroke-width="15"/>
<path d="M245.533 63.4448C245.533 78.5371 239.625 87.7242 230.427 93.5423C220.681 99.707 206.476 102.537 189.539 102.537C172.602 102.537 158.397 99.707 148.651 93.5423C139.453 87.7242 133.545 78.5371 133.545 63.4448C133.545 32.5528 158.609 7.5 189.539 7.5C220.469 7.5 245.533 32.5528 245.533 63.4448Z" fill="#FFC4FF" stroke="black" stroke-width="15"/>
<path d="M394.878 63.4448C394.878 78.5371 388.969 87.7242 379.772 93.5423C370.026 99.707 355.821 102.537 338.884 102.537C321.947 102.537 307.742 99.707 297.996 93.5423C288.798 87.7242 282.89 78.5371 282.89 63.4448C282.89 32.5528 307.954 7.5 338.884 7.5C369.814 7.5 394.878 32.5528 394.878 63.4448Z" fill="#9C64A6" stroke="black" stroke-width="15"/>
<path d="M16.4096 133.434C42.9892 188.854 108.116 194.441 118.878 204.354V178.219L123.362 154.788C67.629 164.675 -19.4647 58.6343 16.4096 133.434Z" fill="#FFC4FF" stroke="black" stroke-width="15"/>
<path d="M515.656 133.434C489.282 188.854 424.66 194.441 413.982 204.354V178.219L409.532 154.788C464.833 164.675 551.252 58.6343 515.656 133.434Z" fill="#9C64A6" stroke="black" stroke-width="15"/>
<ellipse cx="339" cy="216.926" rx="100" ry="101.112" fill="#9C64A6"/>
<ellipse cx="191" cy="216.926" rx="100" ry="101.112" fill="#FFC4FF"/>
<rect x="245.879" y="148.463" width="40.2426" height="140.603" rx="20.1213" fill="#CE93D8"/>
<rect x="263.764" y="176.408" width="27.7227" height="75.1046" rx="13.8614" fill="#CE93D8"/>
<rect x="232.464" y="176.408" width="29.5113" height="75.1046" rx="14.7556" fill="#CE93D8"/>
<mask id="mask0_1_53" style="mask-type:alpha" maskUnits="userSpaceOnUse" x="224" y="101" width="230" height="231">
<path d="M232.356 216.723C232.356 276.296 280.299 324.5 339.33 324.5C398.361 324.5 446.304 276.296 446.304 216.723C446.304 157.15 398.361 108.946 339.33 108.946C280.299 108.946 232.356 157.15 232.356 216.723Z" stroke="black" stroke-width="15"/>
</mask>
<g mask="url(#mask0_1_53)">
<rect width="128.753" height="295.328" transform="matrix(-1 0 0 1 339.357 69.0323)" fill="black"/>
</g>
<mask id="mask1_1_53" style="mask-type:alpha" maskUnits="userSpaceOnUse" x="74" y="101" width="230" height="231">
<path d="M296.224 216.581C296.224 276.154 248.281 324.358 189.25 324.358C130.22 324.358 82.2765 276.154 82.2765 216.581C82.2765 157.008 130.22 108.804 189.25 108.804C248.281 108.804 296.224 157.008 296.224 216.581Z" stroke="black" stroke-width="15"/>
</mask>
<g mask="url(#mask1_1_53)">
<rect x="186.3" y="71.6521" width="128.783" height="295.328" fill="black"/>
</g>
</svg>
